<mxfile host="65bd71144e">
    <diagram id="0-qSzlRTfHiEZyhpgsYa" name="Page-1">
        <mxGraphModel dx="3870" dy="2510" grid="1" gridSize="10" guides="1" tooltips="1" connect="1" arrows="1" fold="1" page="1" pageScale="1" pageWidth="1200" pageHeight="1920" math="0" shadow="0">
            <root>
                <mxCell id="0"/>
                <mxCell id="1" parent="0"/>
                <mxCell id="56" value="" style="rounded=0;whiteSpace=wrap;html=1;" parent="1" vertex="1">
                    <mxGeometry x="740" y="1750" width="640" height="435" as="geometry"/>
                </mxCell>
                <mxCell id="79" value="" style="rounded=1;whiteSpace=wrap;html=1;fontSize=24;" parent="1" vertex="1">
                    <mxGeometry x="820" y="1860" width="420" height="130" as="geometry"/>
                </mxCell>
                <mxCell id="71" value="" style="rounded=1;whiteSpace=wrap;html=1;fontSize=24;" parent="1" vertex="1">
                    <mxGeometry x="820" y="2015" width="420" height="130" as="geometry"/>
                </mxCell>
                <mxCell id="121" style="edgeStyle=orthogonalEdgeStyle;html=1;exitX=0.75;exitY=0;exitDx=0;exitDy=0;entryX=0;entryY=0.5;entryDx=0;entryDy=0;strokeWidth=5;fontSize=24;startArrow=classicThin;startFill=1;" parent="1" source="7" target="95" edge="1">
                    <mxGeometry relative="1" as="geometry"/>
                </mxCell>
                <mxCell id="7" value="&lt;span style=&quot;font-size: 24px;&quot;&gt;&lt;br&gt;&lt;/span&gt;" style="rounded=0;whiteSpace=wrap;html=1;" parent="1" vertex="1">
                    <mxGeometry x="2080" y="1340" width="650" height="410" as="geometry"/>
                </mxCell>
                <mxCell id="6" value="&lt;font style=&quot;font-size: 24px;&quot;&gt;Парсеры&lt;/font&gt;&lt;br&gt;&lt;br&gt;&lt;br&gt;&lt;br&gt;&lt;br&gt;" style="rounded=0;whiteSpace=wrap;html=1;" parent="1" vertex="1">
                    <mxGeometry x="2140" y="570" width="520" height="190" as="geometry"/>
                </mxCell>
                <mxCell id="2" value="Avito" style="rounded=1;whiteSpace=wrap;html=1;" parent="1" vertex="1">
                    <mxGeometry x="2180" y="675" width="140" height="75" as="geometry"/>
                </mxCell>
                <mxCell id="3" value="Cian" style="rounded=1;whiteSpace=wrap;html=1;" parent="1" vertex="1">
                    <mxGeometry x="2330" y="675" width="140" height="75" as="geometry"/>
                </mxCell>
                <mxCell id="4" value="yandex" style="rounded=1;whiteSpace=wrap;html=1;" parent="1" vertex="1">
                    <mxGeometry x="2480" y="675" width="150" height="75" as="geometry"/>
                </mxCell>
                <mxCell id="51" style="edgeStyle=orthogonalEdgeStyle;html=1;entryX=1;entryY=0.5;entryDx=0;entryDy=0;strokeColor=default;strokeWidth=5;fontSize=24;startArrow=circle;startFill=1;endArrow=circle;endFill=0;" parent="1" source="14" target="19" edge="1">
                    <mxGeometry relative="1" as="geometry"/>
                </mxCell>
                <mxCell id="114" value="API" style="edgeLabel;html=1;align=center;verticalAlign=middle;resizable=0;points=[];fontSize=24;" parent="51" vertex="1" connectable="0">
                    <mxGeometry x="0.0783" y="1" relative="1" as="geometry">
                        <mxPoint as="offset"/>
                    </mxGeometry>
                </mxCell>
                <mxCell id="123" style="edgeStyle=orthogonalEdgeStyle;html=1;exitX=0;exitY=0.25;exitDx=0;exitDy=0;strokeWidth=5;entryX=0.75;entryY=1;entryDx=0;entryDy=0;" edge="1" parent="1" source="14" target="7">
                    <mxGeometry relative="1" as="geometry">
                        <mxPoint x="3040" y="1830" as="targetPoint"/>
                    </mxGeometry>
                </mxCell>
                <mxCell id="14" value="&lt;span style=&quot;font-size: 24px;&quot;&gt;&lt;br&gt;&lt;/span&gt;" style="rounded=0;whiteSpace=wrap;html=1;" parent="1" vertex="1">
                    <mxGeometry x="3410" y="1935" width="630" height="240" as="geometry"/>
                </mxCell>
                <mxCell id="15" value="&lt;div style=&quot;text-align: center;&quot;&gt;&lt;span style=&quot;background-color: initial;&quot;&gt;Предсказание цены квартиры&lt;/span&gt;&lt;br&gt;&lt;/div&gt;" style="rounded=1;whiteSpace=wrap;html=1;align=left;" parent="1" vertex="1">
                    <mxGeometry x="3632.5" y="1975" width="120" height="60" as="geometry"/>
                </mxCell>
                <mxCell id="52" style="edgeStyle=orthogonalEdgeStyle;html=1;entryX=0.5;entryY=1;entryDx=0;entryDy=0;strokeColor=default;strokeWidth=5;fontSize=24;startArrow=none;startFill=0;exitX=0.5;exitY=0;exitDx=0;exitDy=0;" parent="1" source="19" target="102" edge="1">
                    <mxGeometry relative="1" as="geometry">
                        <mxPoint x="2400" y="2060" as="targetPoint"/>
                    </mxGeometry>
                </mxCell>
                <mxCell id="111" value="Raw Logs" style="edgeLabel;html=1;align=center;verticalAlign=middle;resizable=0;points=[];fontSize=24;" parent="52" vertex="1" connectable="0">
                    <mxGeometry x="0.0831" y="-1" relative="1" as="geometry">
                        <mxPoint x="1" as="offset"/>
                    </mxGeometry>
                </mxCell>
                <mxCell id="19" value="&lt;span style=&quot;font-size: 24px;&quot;&gt;&lt;br&gt;&lt;/span&gt;" style="rounded=0;whiteSpace=wrap;html=1;" parent="1" vertex="1">
                    <mxGeometry x="2080" y="2279.57" width="632.5" height="230" as="geometry"/>
                </mxCell>
                <mxCell id="20" value="Telegram" style="rounded=1;whiteSpace=wrap;html=1;" parent="1" vertex="1">
                    <mxGeometry x="2230" y="2399.57" width="120" height="60" as="geometry"/>
                </mxCell>
                <mxCell id="21" value="API" style="rounded=1;whiteSpace=wrap;html=1;" parent="1" vertex="1">
                    <mxGeometry x="2470" y="2399.57" width="120" height="60" as="geometry"/>
                </mxCell>
                <mxCell id="27" style="edgeStyle=orthogonalEdgeStyle;html=1;entryX=0.5;entryY=0;entryDx=0;entryDy=0;strokeWidth=5;fontSize=24;exitX=0.5;exitY=1;exitDx=0;exitDy=0;" parent="1" source="6" target="69" edge="1">
                    <mxGeometry relative="1" as="geometry">
                        <mxPoint x="2410.04" y="570" as="sourcePoint"/>
                        <mxPoint x="2400" y="1000" as="targetPoint"/>
                    </mxGeometry>
                </mxCell>
                <mxCell id="82" value="HTML" style="edgeLabel;html=1;align=center;verticalAlign=middle;resizable=0;points=[];fontSize=24;" parent="27" vertex="1" connectable="0">
                    <mxGeometry x="0.1063" relative="1" as="geometry">
                        <mxPoint as="offset"/>
                    </mxGeometry>
                </mxCell>
                <mxCell id="106" style="edgeStyle=orthogonalEdgeStyle;html=1;strokeColor=default;strokeWidth=5;fontSize=24;startArrow=none;startFill=0;entryX=0;entryY=0.5;entryDx=0;entryDy=0;" parent="1" source="30" target="89" edge="1">
                    <mxGeometry relative="1" as="geometry">
                        <mxPoint x="2910" y="1720" as="targetPoint"/>
                    </mxGeometry>
                </mxCell>
                <mxCell id="30" value="VectorDB" style="rounded=1;whiteSpace=wrap;html=1;" parent="1" vertex="1">
                    <mxGeometry x="2322.5" y="1590" width="150" height="70" as="geometry"/>
                </mxCell>
                <mxCell id="122" style="edgeStyle=orthogonalEdgeStyle;html=1;exitX=0;exitY=0.75;exitDx=0;exitDy=0;strokeWidth=5;" edge="1" parent="1" source="32">
                    <mxGeometry relative="1" as="geometry">
                        <mxPoint x="2230" y="2280" as="targetPoint"/>
                        <Array as="points">
                            <mxPoint x="2230" y="1553"/>
                        </Array>
                    </mxGeometry>
                </mxCell>
                <mxCell id="32" value="Реляционная лошадка" style="rounded=1;whiteSpace=wrap;html=1;" parent="1" vertex="1">
                    <mxGeometry x="2320" y="1500" width="155" height="70" as="geometry"/>
                </mxCell>
                <mxCell id="43" value="&lt;div style=&quot;&quot;&gt;&lt;span style=&quot;background-color: initial;&quot;&gt;Поиск подходящего объекта&lt;/span&gt;&lt;/div&gt;&lt;div style=&quot;&quot;&gt;&lt;span style=&quot;background-color: initial;&quot;&gt;&lt;br&gt;&lt;/span&gt;&lt;/div&gt;&lt;div style=&quot;&quot;&gt;&lt;span style=&quot;background-color: initial;&quot;&gt;&lt;br&gt;&lt;/span&gt;&lt;/div&gt;&lt;div style=&quot;&quot;&gt;&lt;span style=&quot;background-color: initial;&quot;&gt;&lt;br&gt;&lt;/span&gt;&lt;/div&gt;&lt;div style=&quot;&quot;&gt;&lt;span style=&quot;background-color: initial;&quot;&gt;&lt;br&gt;&lt;/span&gt;&lt;/div&gt;&lt;div style=&quot;&quot;&gt;&lt;span style=&quot;background-color: initial;&quot;&gt;&lt;br&gt;&lt;/span&gt;&lt;/div&gt;&lt;div style=&quot;&quot;&gt;&lt;span style=&quot;background-color: initial;&quot;&gt;&lt;br&gt;&lt;/span&gt;&lt;/div&gt;&lt;div style=&quot;&quot;&gt;&lt;span style=&quot;background-color: initial;&quot;&gt;&lt;br&gt;&lt;/span&gt;&lt;/div&gt;" style="rounded=1;whiteSpace=wrap;html=1;align=center;" parent="1" vertex="1">
                    <mxGeometry x="3785" y="1965" width="240" height="170" as="geometry"/>
                </mxCell>
                <mxCell id="44" value="&lt;div style=&quot;&quot;&gt;По картинке&lt;/div&gt;" style="rounded=1;whiteSpace=wrap;html=1;align=center;" parent="1" vertex="1">
                    <mxGeometry x="3800" y="2035" width="90" height="30" as="geometry"/>
                </mxCell>
                <mxCell id="45" value="&lt;div style=&quot;&quot;&gt;По тексту&lt;/div&gt;" style="rounded=1;whiteSpace=wrap;html=1;align=center;" parent="1" vertex="1">
                    <mxGeometry x="3920" y="2035" width="90" height="30" as="geometry"/>
                </mxCell>
                <mxCell id="46" value="&lt;div style=&quot;&quot;&gt;По дискретным параметрам&lt;/div&gt;" style="rounded=1;whiteSpace=wrap;html=1;align=center;" parent="1" vertex="1">
                    <mxGeometry x="3800" y="2080" width="210" height="30" as="geometry"/>
                </mxCell>
                <mxCell id="49" value="Поиск аномалий" style="rounded=1;whiteSpace=wrap;html=1;align=center;" parent="1" vertex="1">
                    <mxGeometry x="3632.5" y="2045" width="120" height="85" as="geometry"/>
                </mxCell>
                <mxCell id="67" style="edgeStyle=orthogonalEdgeStyle;html=1;entryX=0;entryY=0.5;entryDx=0;entryDy=0;strokeColor=default;strokeWidth=5;fontSize=24;startArrow=none;startFill=0;exitX=1;exitY=0.5;exitDx=0;exitDy=0;" parent="1" source="71" target="30" edge="1">
                    <mxGeometry relative="1" as="geometry"/>
                </mxCell>
                <mxCell id="85" value="Vectors" style="edgeLabel;html=1;align=center;verticalAlign=middle;resizable=0;points=[];fontSize=24;" parent="67" vertex="1" connectable="0">
                    <mxGeometry x="-0.6241" y="7" relative="1" as="geometry">
                        <mxPoint as="offset"/>
                    </mxGeometry>
                </mxCell>
                <mxCell id="58" value="Feature Fabric" style="whiteSpace=wrap;html=1;fontSize=24;" parent="1" vertex="1">
                    <mxGeometry x="750" y="1770" width="120" height="60" as="geometry"/>
                </mxCell>
                <mxCell id="59" value="Data&lt;br&gt;Warhouse" style="whiteSpace=wrap;html=1;fontSize=24;" parent="1" vertex="1">
                    <mxGeometry x="2090" y="1370" width="120" height="60" as="geometry"/>
                </mxCell>
                <mxCell id="60" value="Models" style="whiteSpace=wrap;html=1;fontSize=24;" parent="1" vertex="1">
                    <mxGeometry x="3422.5" y="1945" width="120" height="60" as="geometry"/>
                </mxCell>
                <mxCell id="61" value="APP" style="whiteSpace=wrap;html=1;fontSize=24;" parent="1" vertex="1">
                    <mxGeometry x="2095" y="2299.57" width="120" height="60" as="geometry"/>
                </mxCell>
                <mxCell id="62" value="Веторизация&lt;br&gt;текста" style="rounded=1;whiteSpace=wrap;html=1;" parent="1" vertex="1">
                    <mxGeometry x="845" y="2045" width="150" height="70" as="geometry"/>
                </mxCell>
                <mxCell id="63" value="Гео" style="rounded=1;whiteSpace=wrap;html=1;" parent="1" vertex="1">
                    <mxGeometry x="845" y="1890" width="150" height="70" as="geometry"/>
                </mxCell>
                <mxCell id="65" value="Дополнение данными по домам из реестра ЖКХ" style="rounded=1;whiteSpace=wrap;html=1;" parent="1" vertex="1">
                    <mxGeometry x="1060" y="1890" width="150" height="70" as="geometry"/>
                </mxCell>
                <mxCell id="66" value="Векторизация изображений" style="rounded=1;whiteSpace=wrap;html=1;" parent="1" vertex="1">
                    <mxGeometry x="1060" y="2045" width="150" height="70" as="geometry"/>
                </mxCell>
                <mxCell id="75" style="edgeStyle=orthogonalEdgeStyle;html=1;entryX=0.5;entryY=0;entryDx=0;entryDy=0;strokeColor=default;strokeWidth=5;fontSize=24;startArrow=none;startFill=0;" parent="1" source="69" target="56" edge="1">
                    <mxGeometry relative="1" as="geometry"/>
                </mxCell>
                <mxCell id="83" value="HTML" style="edgeLabel;html=1;align=center;verticalAlign=middle;resizable=0;points=[];fontSize=24;" parent="75" vertex="1" connectable="0">
                    <mxGeometry x="-0.1219" relative="1" as="geometry">
                        <mxPoint as="offset"/>
                    </mxGeometry>
                </mxCell>
                <mxCell id="69" value="S3" style="rounded=1;whiteSpace=wrap;html=1;" parent="1" vertex="1">
                    <mxGeometry x="2322.5" y="1410" width="150" height="70" as="geometry"/>
                </mxCell>
                <mxCell id="70" value="" style="rounded=0;whiteSpace=wrap;html=1;" parent="1" vertex="1">
                    <mxGeometry x="3410" y="1420" width="640" height="320" as="geometry"/>
                </mxCell>
                <mxCell id="77" style="edgeStyle=orthogonalEdgeStyle;html=1;entryX=0;entryY=0.5;entryDx=0;entryDy=0;strokeColor=default;strokeWidth=5;fontSize=24;startArrow=none;startFill=0;exitX=1;exitY=0.5;exitDx=0;exitDy=0;" parent="1" source="79" target="32" edge="1">
                    <mxGeometry relative="1" as="geometry">
                        <mxPoint x="1720" y="1575.75" as="sourcePoint"/>
                        <Array as="points">
                            <mxPoint x="1510" y="1925"/>
                            <mxPoint x="1510" y="1535"/>
                        </Array>
                    </mxGeometry>
                </mxCell>
                <mxCell id="86" value="DataFrame" style="edgeLabel;html=1;align=center;verticalAlign=middle;resizable=0;points=[];fontSize=24;" parent="77" vertex="1" connectable="0">
                    <mxGeometry x="-0.1306" y="8" relative="1" as="geometry">
                        <mxPoint as="offset"/>
                    </mxGeometry>
                </mxCell>
                <mxCell id="88" value="ML" style="whiteSpace=wrap;html=1;fontSize=24;" parent="1" vertex="1">
                    <mxGeometry x="3422.5" y="1440" width="120" height="60" as="geometry"/>
                </mxCell>
                <mxCell id="100" style="edgeStyle=orthogonalEdgeStyle;html=1;entryX=0.25;entryY=0;entryDx=0;entryDy=0;strokeColor=default;strokeWidth=5;fontSize=24;startArrow=none;startFill=0;" parent="1" source="89" target="14" edge="1">
                    <mxGeometry relative="1" as="geometry"/>
                </mxCell>
                <mxCell id="118" style="edgeStyle=orthogonalEdgeStyle;html=1;exitX=0;exitY=0.75;exitDx=0;exitDy=0;entryX=1;entryY=0.5;entryDx=0;entryDy=0;strokeWidth=5;" parent="1" source="89" target="102" edge="1">
                    <mxGeometry relative="1" as="geometry">
                        <mxPoint x="3070" y="1750" as="targetPoint"/>
                    </mxGeometry>
                </mxCell>
                <mxCell id="89" value="Обучение" style="rounded=1;whiteSpace=wrap;html=1;" parent="1" vertex="1">
                    <mxGeometry x="3560" y="1600" width="430" height="90" as="geometry"/>
                </mxCell>
                <mxCell id="101" style="edgeStyle=orthogonalEdgeStyle;html=1;entryX=1;entryY=0.5;entryDx=0;entryDy=0;strokeColor=default;strokeWidth=5;fontSize=24;startArrow=none;startFill=0;exitX=0;exitY=0.25;exitDx=0;exitDy=0;" parent="1" source="89" target="69" edge="1">
                    <mxGeometry relative="1" as="geometry">
                        <Array as="points">
                            <mxPoint x="3510" y="1622"/>
                            <mxPoint x="3510" y="1620"/>
                            <mxPoint x="3260" y="1620"/>
                            <mxPoint x="3260" y="1445"/>
                        </Array>
                        <mxPoint x="3560" y="1520" as="sourcePoint"/>
                    </mxGeometry>
                </mxCell>
                <mxCell id="120" value="&lt;font style=&quot;font-size: 24px;&quot;&gt;Артефакты&lt;/font&gt;" style="edgeLabel;html=1;align=center;verticalAlign=middle;resizable=0;points=[];fontSize=11;" parent="101" vertex="1" connectable="0">
                    <mxGeometry x="0.0474" y="-3" relative="1" as="geometry">
                        <mxPoint as="offset"/>
                    </mxGeometry>
                </mxCell>
                <mxCell id="95" value="" style="rounded=0;whiteSpace=wrap;html=1;" parent="1" vertex="1">
                    <mxGeometry x="2830" y="960" width="632.5" height="250" as="geometry"/>
                </mxCell>
                <mxCell id="96" value="Мониторинг" style="whiteSpace=wrap;html=1;fontSize=24;" parent="1" vertex="1">
                    <mxGeometry x="2842.5" y="980" width="147.5" height="60" as="geometry"/>
                </mxCell>
                <mxCell id="97" value="Model&lt;br&gt;Perfomance" style="rounded=1;whiteSpace=wrap;html=1;" parent="1" vertex="1">
                    <mxGeometry x="3315" y="1020" width="107.5" height="70" as="geometry"/>
                </mxCell>
                <mxCell id="102" value="Логи" style="rounded=1;whiteSpace=wrap;html=1;" parent="1" vertex="1">
                    <mxGeometry x="2320" y="1670" width="150" height="70" as="geometry"/>
                </mxCell>
                <mxCell id="103" value="DataQuality" style="rounded=1;whiteSpace=wrap;html=1;" parent="1" vertex="1">
                    <mxGeometry x="3160" y="1110" width="107.5" height="70" as="geometry"/>
                </mxCell>
                <mxCell id="104" value="Data Drift" style="rounded=1;whiteSpace=wrap;html=1;" parent="1" vertex="1">
                    <mxGeometry x="3315" y="1110" width="107.5" height="70" as="geometry"/>
                </mxCell>
                <mxCell id="105" style="edgeStyle=orthogonalEdgeStyle;html=1;entryX=0;entryY=0.5;entryDx=0;entryDy=0;strokeColor=default;strokeWidth=5;fontSize=24;startArrow=none;startFill=0;" parent="1" source="32" target="89" edge="1">
                    <mxGeometry relative="1" as="geometry"/>
                </mxCell>
                <mxCell id="109" value="System Health check" style="rounded=1;whiteSpace=wrap;html=1;" parent="1" vertex="1">
                    <mxGeometry x="3160" y="1020" width="107.5" height="70" as="geometry"/>
                </mxCell>
                <mxCell id="116" value="Графана" style="shape=hexagon;perimeter=hexagonPerimeter2;whiteSpace=wrap;html=1;fixedSize=1;fontSize=24;" parent="1" vertex="1">
                    <mxGeometry x="2970" y="1060" width="120" height="80" as="geometry"/>
                </mxCell>
            </root>
        </mxGraphModel>
    </diagram>
</mxfile>